<svg xmlns="http://www.w3.org/2000/svg" viewBox="0 0 180 180" fill="none">
  <rect width="180" height="180" fill="black"/>
  <path d="M120.49 120.19C120.49 130.22 112.57 138.15 102.55 138.15C92.52 138.15 84.6 130.22 84.6 120.19C84.6 110.16 92.52 102.23 102.55 102.23C112.57 102.23 120.49 110.16 120.49 120.19Z" fill="white"/>
  <path d="M133.02 91.2H133.03V150.55H121.98V92.75L71.35 151.53H61.64V61.64H72.69V128.53L133.02 61.64V91.2ZM100.34 120.19C100.34 126.64 95.1 131.88 88.65 131.88C82.2 131.88 76.96 126.64 76.96 120.19C76.96 113.74 82.2 108.5 88.65 108.5C95.1 108.5 100.34 113.74 100.34 120.19ZM74.29 120.19C74.29 111.36 81.83 103.82 90.66 103.82C99.49 103.82 107.03 111.36 107.03 120.19C107.03 129.02 99.49 136.56 90.66 136.56C81.83 136.56 74.29 129.02 74.29 120.19ZM110.94 0V49.57H99.89V1.14L110.94 0ZM0 0H22.91L89.71 116.42L77.84 131.34L0 0ZM61.64 0H72.69V150.55H61.64V0Z" fill="white"/>
</svg>